<svg class="svg-icon" style="width: 1em;height: 1em;vertical-align: middle;fill: currentColor;overflow: hidden;" viewBox="0 0 1024 1024" version="1.1" xmlns="http://www.w3.org/2000/svg"><path d="M512 512m-512 0a512 512 0 1 0 1024 0 512 512 0 1 0-1024 0Z" fill="#FCD063" /><path d="M840.512 119.488C915.008 208.416 960 322.912 960 448c0 282.752-229.248 512-512 512-125.088 0-239.584-44.992-328.512-119.488C213.408 952.64 354.304 1024 512 1024c282.752 0 512-229.248 512-512 0-157.696-71.36-298.592-183.488-392.512z" fill="#F7B84E" /><path d="M816 656m-48 0a48 48 0 1 0 96 0 48 48 0 1 0-96 0Z" fill="#F7B84E" /><path d="M208 656m-48 0a48 48 0 1 0 96 0 48 48 0 1 0-96 0Z" fill="#F7B84E" /><path d="M608 384h256v192H608zM160 384h256v192H160z" fill="#FFE1A6" /><path d="M992 384h-69.888c-13.28-37.184-48.48-64-90.112-64h-192c-33.408 0-62.816 17.184-80 43.136-14.944-7.264-31.2-11.136-48-11.136s-33.056 3.872-48 11.136C446.816 337.184 417.408 320 384 320H192c-41.664 0-76.832 26.816-90.112 64H32c-17.664 0-32 14.336-32 32s14.336 32 32 32h64v96c0 52.928 43.072 96 96 96h192c52.928 0 96-43.072 96-96v-114.848c19.2-16.416 44.8-16.416 64 0V544c0 52.928 43.072 96 96 96h192c52.928 0 96-43.072 96-96v-96h64c17.696 0 32-14.336 32-32s-14.304-32-32-32z m-576 160c0 17.632-14.368 32-32 32H192c-17.632 0-32-14.368-32-32v-128c0-17.632 14.368-32 32-32h192c17.632 0 32 14.368 32 32v128z m448 0c0 17.632-14.368 32-32 32h-192c-17.632 0-32-14.368-32-32v-128c0-17.632 14.368-32 32-32h192c17.632 0 32 14.368 32 32v128z" fill="#AB7934" /><path d="M704 496m-32 0a32 32 0 1 0 64 0 32 32 0 1 0-64 0Z" fill="#C98E3F" /><path d="M320 496m-32 0a32 32 0 1 0 64 0 32 32 0 1 0-64 0Z" fill="#C98E3F" /><path d="M352 752h320c17.696 0 32-14.304 32-32H320c0 17.696 14.336 32 32 32z" fill="#C98E3F" /><path d="M672 688H352c-17.664 0-32 14.304-32 32h384c0-17.696-14.304-32-32-32z" fill="#AB7934" /><path d="M416 784c0 17.6 14.4 32 32 32h128c17.6 0 32-14.4 32-32v-96h-192v96z" fill="#FFFFFF" /><path d="M416 688h192v32h-192z" fill="#E2E5E7" /><path d="M320 496c11.712 0 21.504 6.624 27.104 16 2.848-4.768 4.896-10.048 4.896-16 0-17.664-14.336-32-32-32s-32 14.336-32 32c0 5.952 2.048 11.232 4.896 16 5.6-9.376 15.392-16 27.104-16zM704 496c11.712 0 21.504 6.624 27.104 16 2.848-4.768 4.896-10.048 4.896-16 0-17.664-14.304-32-32-32s-32 14.336-32 32c0 5.952 2.048 11.232 4.896 16 5.6-9.376 15.392-16 27.104-16z" fill="#AB7934" /></svg>