<svg class="svg-icon" style="width: 1em; height: 1em; vertical-align: fill:black; middle; fill: currentColor; overflow: hidden;" viewBox="0 0 1024 1024" version="1.1" xmlns="http://www.w3.org/2000/svg"><path d="M512 106.666667a405.333333 405.333333 0 1 0 405.333333 405.333333A405.333333 405.333333 0 0 0 512 106.666667z m216.96 540.885333a255.786667 255.786667 0 0 1-471.274667-107.072l-7.936 7.936a21.333333 21.333333 0 0 1-30.165333-30.165333l42.666667-42.666667a21.333333 21.333333 0 0 1 30.165333 0l42.666667 42.666667a21.333333 21.333333 0 1 1-30.165334 30.165333l-2.901333-2.901333a212.693333 212.693333 0 0 0 390.784 79.402666 21.333333 21.333333 0 1 1 36.16 22.613334z m32.789333-99.136a21.333333 21.333333 0 0 1-30.165333 0l-42.666667-42.666667a21.333333 21.333333 0 0 1 30.165334-30.165333l2.922666 2.901333a212.693333 212.693333 0 0 0-390.805333-79.402666 21.333333 21.333333 0 1 1-36.16-22.613334 255.786667 255.786667 0 0 1 471.274667 107.050667l7.936-7.936a21.333333 21.333333 0 0 1 30.165333 30.165333z"/></svg>